# xmcd
#
# Track frame offsets: 
#        150
#        9957
#        19822
#        30423
#        42598
#        53629
#        67247
#        80296
#        90516
#        104152
#        116561
#        128946
#        141056
#        156699
#        170759
#        183150
#        193170
#        205130
#        215744
#        227931
#        240383
#        250104
#
# Disc length: 3470 seconds
#
# Revision: 3
# Processed by: cddbd v1.5.2PL0 Copyright (c) Steve Scherf et al.
# Submitted via: ExactAudioCopyFreeDBPlugin 1.0
#
DISCID=3c0d8c16
DTITLE=Various Artist - Southern Funkin':  Louisiana Funk and Soul, 1
DTITLE=967-1970
DYEAR=2005
DGENRE=Rhythm and Blues
TTITLE0=Eddie "G" Giles - Soul Feeling, Part 1
TTITLE1=Chester Randle's Soul Senders - Soul Brothers Testify, Part 1
TTITLE2=Abraham and the Casanovas - Soul Power
TTITLE3=Dynamic Adam and his Excitements - Be a Man
TTITLE4=Camille "Lil" Bob - Stop
TTITLE5=Dennis Landry - Miss Hard to Get
TTITLE6=Freddie Love - Everybody's Doing It
TTITLE7=Tabby Thomas - One Day
TTITLE8=The African Music Machine - Blackwater Gold
TTITLE9=Dennis Landry - Concentration
TTITLE10=Johnny Truitt - No Sad Times
TTITLE11=Katie Webster - Hell or High Water
TTITLE12=JJ Caillier - I Got a Groove
TTITLE13=Freddie Love with the Notables - Crazy Girl, Part 1 
TTITLE14=Donnie Jacobs - Proud Man
TTITLE15=Count Rockin' Sidney with the Dukes - Put it On
TTITLE16=Ernest Thomas - Soul Time
TTITLE17=Clifton White and his Royal Knights - Fix It
TTITLE18=Bill Parker - Gonna Put My Foot Down
TTITLE19="Count" Rockin Sidney - Bury the Hatchet
TTITLE20=Leroy Soileau - Wish You Were Here
TTITLE21=Eddy "G" Giles - Soul Feeling, Part 2
EXTD=
EXTT0=
EXTT1=
EXTT2=
EXTT3=
EXTT4=
EXTT5=
EXTT6=
EXTT7=
EXTT8=
EXTT9=
EXTT10=
EXTT11=
EXTT12=
EXTT13=
EXTT14=
EXTT15=
EXTT16=
EXTT17=
EXTT18=
EXTT19=
EXTT20=
EXTT21=
PLAYORDER=
